<svg xmlns="http://www.w3.org/2000/svg" viewBox="0 0 2000 600" preserveAspectRatio="xMidYMax slice">
  <defs>
    <linearGradient id="grad-light" x1="0%" y1="0%" x2="0%" y2="100%">
      <stop offset="0%" stop-color="#f5f5f5" />
      <stop offset="100%" stop-color="#c5c5c5" />
    </linearGradient>
    <linearGradient id="grad-mid" x1="0%" y1="0%" x2="0%" y2="100%">
      <stop offset="0%" stop-color="#bdbdbd" />
      <stop offset="100%" stop-color="#7a7a7a" />
    </linearGradient>
    <linearGradient id="grad-dark" x1="0%" y1="0%" x2="0%" y2="100%">
      <stop offset="0%" stop-color="#4b4b4b" />
      <stop offset="100%" stop-color="#1b1b1b" />
    </linearGradient>
    <linearGradient id="grad-foreground" x1="0%" y1="0%" x2="0%" y2="100%">
      <stop offset="0%" stop-color="#2c2c2c" />
      <stop offset="100%" stop-color="#090909" />
    </linearGradient>
  </defs>
  <rect width="2000" height="600" fill="transparent" />
  <!-- Back layer -->
  <g fill="url(#grad-light)">
    <polygon points="60,600 60,120 130,90 130,600" />
    <polygon points="210,600 210,150 350,140 350,600" />
    <polygon points="420,600 420,80 510,70 510,600" />
    <polygon points="640,600 640,110 760,100 760,600" />
    <polygon points="840,600 840,60 910,50 910,600" />
    <polygon points="1000,600 1000,130 1140,110 1140,600" />
    <polygon points="1220,600 1220,150 1400,120 1400,600" />
    <polygon points="1480,600 1480,90 1580,70 1580,600" />
    <polygon points="1680,600 1680,130 1850,110 1850,600" />
    <polygon points="1870,600 1870,80 1940,60 1940,600" />
  </g>
  <!-- Mid layer -->
  <g fill="url(#grad-mid)">
    <polygon points="0,600 0,260 100,220 120,600" />
    <polygon points="180,600 200,240 330,260 350,600" />
    <polygon points="400,600 430,220 520,230 530,600" />
    <polygon points="600,600 630,250 750,240 770,600" />
    <polygon points="880,600 900,210 1010,210 1030,600" />
    <polygon points="1080,600 1100,240 1200,230 1230,600" />
    <polygon points="1310,600 1330,220 1450,230 1465,600" />
    <polygon points="1520,600 1540,250 1660,240 1680,600" />
  </g>
  <!-- Dark mid layer -->
  <g fill="url(#grad-dark)">
    <polygon points="40,600 60,360 150,340 170,600" />
    <polygon points="290,600 310,330 390,320 420,600" />
    <polygon points="520,600 540,360 650,340 670,600" />
    <polygon points="760,600 780,330 860,320 900,600" />
    <polygon points="960,600 980,350 1090,330 1110,600" />
    <polygon points="1180,600 1200,360 1300,340 1320,600" />
    <polygon points="1380,600 1400,330 1500,330 1520,600" />
    <polygon points="1580,600 1600,350 1710,330 1730,600" />
    <polygon points="1780,600 1800,360 1910,340 1930,600" />
  </g>
  <!-- Foreground silhouettes -->
  <g fill="url(#grad-foreground)">
    <polygon points="0,600 0,420 80,400 90,600" />
    <polygon points="110,600 120,430 210,410 230,600" />
    <polygon points="260,600 280,430 360,450 380,600" />
    <polygon points="420,600 440,420 540,450 560,600" />
    <polygon points="600,600 620,440 700,430 730,600" />
    <polygon points="760,600 780,430 880,460 900,600" />
    <polygon points="930,600 950,440 1050,430 1080,600" />
    <polygon points="1100,600 1120,430 1200,440 1220,600" />
    <polygon points="1250,600 1270,420 1350,450 1370,600" />
    <polygon points="1400,600 1420,440 1500,430 1520,600" />
    <polygon points="1550,600 1570,420 1670,445 1690,600" />
    <polygon points="1720,600 1740,420 1840,430 1860,600" />
    <polygon points="1880,600 1900,430 2000,420 2000,600" />
  </g>
</svg>
